HIERARCHY
ROOT Pelvis
{
	OFFSET 0.000000 0.000000 0.000000
	CHANNELS 6 Xposition Yposition Zposition Xrotation Yrotation Zrotation
	JOINT LeftUpLeg_virtual
	{
		OFFSET 0.000000 0.000000 0.000000
		CHANNELS 3 Xrotation Yrotation Zrotation
		JOINT LeftUpLeg
		{
			OFFSET 8.479700 -4.795502 -0.379100
			CHANNELS 3 Xrotation Yrotation Zrotation
			JOINT LeftLeg
			{
				OFFSET 0.024144 -32.555107 0.112900
				CHANNELS 3 Xrotation Yrotation Zrotation
				JOINT LeftFoot
				{
					OFFSET -0.024144 -32.638630 -3.012600
					CHANNELS 3 Xrotation Yrotation Zrotation
					JOINT LeftToeBase
					{
						OFFSET 0.970200 -13.225400 11.864200
						CHANNELS 3 Xrotation Yrotation Zrotation
						End Site
						{
							OFFSET 0 0 0
						}
					}
				}
			}
		}
	}
	JOINT RightUpLeg_virtual
	{
		OFFSET 0.000000 0.000000 0.000000
		CHANNELS 3 Xrotation Yrotation Zrotation
		JOINT RightUpLeg
		{
			OFFSET -8.479700 -4.795502 -0.379100
			CHANNELS 3 Xrotation Yrotation Zrotation
			JOINT RightLeg
			{
				OFFSET -0.023144 -32.555092 0.112900
				CHANNELS 3 Xrotation Yrotation Zrotation
				JOINT RightFoot
				{
					OFFSET 0.023144 -32.638641 -3.012700
					CHANNELS 3 Xrotation Yrotation Zrotation
					JOINT RightToeBase
					{
						OFFSET -0.970200 -13.225400 11.864200
						CHANNELS 3 Xrotation Yrotation Zrotation
						End Site
						{
							OFFSET 0 0 0
						}
					}
				}
			}
		}
	}
	JOINT Hips_virtual
	{
		OFFSET 0.000000 0.000000 0.000000
		CHANNELS 3 Xrotation Yrotation Zrotation
		JOINT Hips
		{
			OFFSET -0.000000 -0.000000 -0.000000
			CHANNELS 3 Xrotation Yrotation Zrotation
			JOINT Spine
			{
				OFFSET 0.000000 7.722000 1.166200
				CHANNELS 3 Xrotation Yrotation Zrotation
				JOINT Spine1
				{
					OFFSET 0.000000 12.024101 0.248800
					CHANNELS 3 Xrotation Yrotation Zrotation
					JOINT Spine2
					{
						OFFSET 0.000000 11.502998 -0.491200
						CHANNELS 3 Xrotation Yrotation Zrotation
						JOINT Neck_virtual
						{
							OFFSET 0.000000 0.000000 0.000000
							CHANNELS 3 Xrotation Yrotation Zrotation
							JOINT Neck
							{
								OFFSET 0.000000 18.430702 -3.123100
								CHANNELS 3 Xrotation Yrotation Zrotation
								JOINT Head
								{
									OFFSET 0.000000 9.051102 1.034000
									CHANNELS 3 Xrotation Yrotation Zrotation
									End Site
									{
										OFFSET 0 0 0
									}
								}
							}
						}
						JOINT LeftShoulder_virtual
						{
							OFFSET 0.000000 0.000000 0.000000
							CHANNELS 3 Xrotation Yrotation Zrotation
							JOINT LeftShoulder
							{
								OFFSET 6.197800 13.665199 -4.064700
								CHANNELS 3 Xrotation Yrotation Zrotation
								JOINT LeftArm
								{
									OFFSET 7.778100 -0.187103 -1.709300
									CHANNELS 3 Xrotation Yrotation Zrotation
									JOINT LeftForeArm
									{
										OFFSET 22.049376 0.000000 0.000000
										CHANNELS 3 Xrotation Yrotation Zrotation
										JOINT LeftHand
										{
											OFFSET 23.009392 0.000000 0.000000
											CHANNELS 3 Xrotation Yrotation Zrotation
											End Site
											{
												OFFSET 0 0 0
											}
										}
									}
								}
							}
						}
						JOINT RightShoulder_virtual
						{
							OFFSET 0.000000 0.000000 0.000000
							CHANNELS 3 Xrotation Yrotation Zrotation
							JOINT RightShoulder
							{
								OFFSET -6.197800 13.665199 -4.064700
								CHANNELS 3 Xrotation Yrotation Zrotation
								JOINT RightArm
								{
									OFFSET -7.778100 -0.187103 -1.709300
									CHANNELS 3 Xrotation Yrotation Zrotation
									JOINT RightForeArm
									{
										OFFSET -22.049376 0.000000 0.000000
										CHANNELS 3 Xrotation Yrotation Zrotation
										JOINT RightHand
										{
											OFFSET -23.009392 0.000000 0.000000
											CHANNELS 3 Xrotation Yrotation Zrotation
											End Site
											{
												OFFSET 0 0 0
											}
										}
									}
								}
							}
						}
					}
				}
			}
		}
	}
}
MOTION
Frames: 10
Frame Time: 0.03333333
5.275661 78.405518 -5.368528 0.000000 0.000000 0.000000 7.546772 -32.824482 -19.884202 -36.432789 -9.785489 26.976462 48.965961 5.407001 8.624336 -10.209523 29.641573 -11.642370 0.000000 0.000000 0.000000 7.546772 -32.824482 -19.884202 -25.654655 4.137329 26.363489 16.735750 -0.342253 7.134001 3.560393 12.873837 -8.326059 0.000000 0.000000 0.000000 7.546772 -32.824482 -19.884202 0.000000 0.000000 -0.000001 19.996326 -5.389683 14.489478 14.882796 -0.853704 11.261198 0.000000 0.000000 0.000000 15.131229 -0.648044 9.675234 -9.983882 -2.860071 5.479614 0.000000 0.000000 0.000000 15.131229 -0.648044 9.675234 1.428806 -22.224464 -11.600556 -29.377108 -24.713940 -57.022842 -0.000002 -6.918359 -0.000004 0.000000 0.000000 0.000000 15.131229 -0.648044 9.675234 2.724539 8.294345 13.453003 6.429284 49.813826 20.457863 -0.000000 22.722608 0.000016 0.000000 0.000000 0.000000 
5.215420 78.403465 -5.370169 0.000000 0.000000 0.000000 7.553587 -32.695316 -19.864043 -36.468733 -9.734969 27.013808 48.936591 5.382405 8.623968 -10.219311 29.463469 -11.646280 0.000000 0.000000 0.000000 7.553587 -32.695316 -19.864043 -25.658557 4.126078 26.385613 16.785596 -0.323666 7.118891 3.497774 12.731097 -8.355448 0.000000 0.000000 0.000000 7.553587 -32.695316 -19.864043 -0.000000 0.000001 0.000001 19.923132 -5.425905 14.558712 14.845368 -0.865566 11.290744 0.000000 0.000000 0.000000 15.093031 -0.659118 9.704714 -9.957541 -2.861783 5.471382 0.000000 0.000000 0.000000 15.093031 -0.659118 9.704714 1.421037 -22.263295 -11.624773 -29.239480 -24.946665 -57.154019 0.000006 -6.919569 -0.000000 0.000000 0.000000 0.000000 15.093031 -0.659118 9.704714 2.805136 8.300648 13.088437 6.473856 49.476316 20.586795 -0.000003 23.126215 0.000006 0.000000 0.000000 0.000000 
5.153551 78.403831 -5.369539 0.000000 0.000000 0.000000 7.557388 -32.546213 -19.838582 -36.491696 -9.692203 27.035627 48.891245 5.385617 8.623980 -10.221060 29.254752 -11.656728 0.000000 0.000000 0.000000 7.557388 -32.546213 -19.838582 -25.654136 4.118019 26.403269 16.831668 -0.301014 7.094614 3.429012 12.567388 -8.378932 0.000000 0.000000 0.000000 7.557388 -32.546213 -19.838582 0.000000 0.000001 0.000000 19.852464 -5.461267 14.628433 14.807946 -0.877134 11.320871 0.000000 0.000000 0.000000 15.054852 -0.669729 9.734741 -9.932007 -2.864888 5.463861 0.000000 0.000000 0.000000 15.054852 -0.669729 9.734741 1.413662 -22.300072 -11.647840 -29.076754 -25.170171 -57.285353 0.000011 -6.920589 -0.000001 0.000000 0.000000 0.000000 15.054852 -0.669729 9.734741 2.887478 8.303044 12.724778 6.502554 49.145072 20.735539 0.000003 23.528023 0.000000 0.000000 0.000000 0.000000 
5.090343 78.406822 -5.366293 0.000000 0.000000 0.000000 7.557540 -32.378262 -19.808083 -36.498909 -9.658530 27.040753 48.829985 5.411341 8.624237 -10.214626 29.028700 -11.673469 0.000000 0.000000 0.000000 7.557540 -32.378262 -19.808083 -25.638807 4.112708 26.414701 16.871928 -0.279061 7.063345 3.355835 12.390290 -8.397829 0.000000 0.000000 0.000000 7.557540 -32.378262 -19.808083 0.000000 0.000000 -0.000002 19.783701 -5.494914 14.698808 14.770568 -0.887982 11.351577 0.000000 0.000000 0.000000 15.016758 -0.679465 9.765326 -9.907235 -2.869377 5.456888 0.000000 0.000000 0.000000 15.016758 -0.679465 9.765326 1.406857 -22.333679 -11.669305 -28.888835 -25.384538 -57.416332 -0.000004 -6.922043 -0.000006 0.000000 0.000000 0.000000 15.016758 -0.679465 9.765326 2.971374 8.302337 12.360870 6.513138 48.819945 20.906765 0.000000 23.926617 -0.000009 0.000000 0.000000 0.000000 
5.026062 78.412056 -5.360106 0.000000 0.000000 0.000000 7.554197 -32.194903 -19.774009 -36.491553 -9.632964 27.031638 48.756916 5.447845 8.624592 -10.203139 28.796576 -11.693208 0.000000 0.000000 0.000000 7.554197 -32.194903 -19.774009 -25.613105 4.110012 26.420487 16.907052 -0.260585 7.027311 3.278863 12.205467 -8.413494 0.000000 0.000000 0.000000 7.554197 -32.194903 -19.774009 0.000000 0.000000 -0.000002 19.715727 -5.525991 14.770299 14.733104 -0.897704 11.382970 0.000000 0.000000 0.000000 14.978622 -0.687930 9.796564 -9.882958 -2.875205 5.450339 0.000000 0.000000 0.000000 14.978622 -0.687930 9.796564 1.400863 -22.363194 -11.688511 -28.676211 -25.589609 -57.546919 0.000007 -6.924431 -0.000003 0.000000 0.000000 0.000000 14.978622 -0.687930 9.796564 3.056627 8.299166 11.995877 6.503504 48.500852 21.102863 0.000002 24.320681 -0.000034 0.000000 0.000000 0.000000 
4.961021 78.419365 -5.350561 0.000000 0.000000 0.000000 7.547095 -31.998999 -19.737392 -36.469484 -9.614989 27.009119 48.675510 5.482639 8.624989 -10.189652 28.573302 -11.712171 0.000000 0.000000 0.000000 7.547095 -31.998999 -19.737392 -25.575877 4.109803 26.420043 16.935889 -0.250357 6.989086 3.199865 12.021045 -8.427507 0.000000 0.000000 0.000000 7.547095 -31.998999 -19.737392 0.000000 0.000001 0.000000 19.647031 -5.553976 14.843719 14.695253 -0.906010 11.415246 0.000000 0.000000 0.000000 14.940136 -0.694863 9.828642 -9.858710 -2.882379 5.444151 0.000000 0.000000 0.000000 14.940136 -0.694863 9.828642 1.395846 -22.387866 -11.704751 -28.439661 -25.784987 -57.677164 -0.000005 -6.927894 -0.000004 0.000000 0.000000 0.000000 14.940136 -0.694863 9.828642 3.143123 8.293933 11.629428 6.471677 48.187627 21.326123 -0.000002 24.709077 0.000014 0.000000 0.000000 0.000000 
4.895370 78.428192 -5.337559 0.000000 0.000000 0.000000 7.536870 -31.793144 -19.699823 -36.434558 -9.604533 26.976273 48.588586 5.513677 8.625277 -10.175649 28.360895 -11.730184 0.000000 0.000000 0.000000 7.536870 -31.793144 -19.699823 -25.528956 4.111774 26.415232 16.959855 -0.247109 6.949638 3.118273 11.837203 -8.440258 0.000000 0.000000 0.000000 7.536870 -31.793144 -19.699823 0.000001 0.000001 -0.000002 19.575954 -5.578923 14.920012 14.656556 -0.912793 11.448702 0.000000 0.000000 0.000000 14.900836 -0.700185 9.861854 -9.834022 -2.890745 5.438150 0.000000 0.000000 0.000000 14.900836 -0.700185 9.861854 1.391956 -22.407236 -11.717321 -28.180152 -25.969923 -57.807204 -0.000007 -6.932591 0.000007 0.000000 0.000000 0.000000 14.900836 -0.700185 9.861854 3.230758 8.286830 11.261527 6.415863 47.880080 21.578734 -0.000003 25.090748 -0.000010 0.000000 0.000000 0.000000 
4.829365 78.438126 -5.320807 0.000000 0.000000 0.000000 7.523861 -31.580418 -19.662882 -36.388120 -9.601158 26.935635 48.499804 5.532859 8.625345 -10.163438 28.168380 -11.745406 0.000000 0.000000 0.000000 7.523861 -31.580418 -19.662882 -25.473071 4.115744 26.407229 16.979002 -0.252404 6.910479 3.035180 11.657832 -8.452602 0.000000 0.000000 0.000000 7.523861 -31.580418 -19.662882 -0.000001 -0.000000 0.000002 19.500907 -5.601322 15.000364 14.616562 -0.918248 11.483687 0.000000 0.000000 0.000000 14.860304 -0.704176 9.896586 -9.808690 -2.900117 5.431929 0.000000 0.000000 0.000000 14.860304 -0.704176 9.896586 1.389258 -22.421117 -11.725564 -27.898854 -26.143860 -57.937025 -0.000001 -6.938292 0.000005 0.000000 0.000000 0.000000 14.860304 -0.704176 9.896586 3.319381 8.277854 10.892565 6.334325 47.577943 21.862703 0.000002 25.464882 -0.000018 0.000000 0.000000 0.000000 
4.763105 78.448669 -5.300451 0.000000 0.000000 0.000000 7.508578 -31.362111 -19.628063 -36.332180 -9.605476 26.889750 48.410964 5.545627 8.625296 -10.153571 27.989840 -11.759339 0.000000 0.000000 0.000000 7.508578 -31.362111 -19.628063 -25.409559 4.121314 26.397838 16.993687 -0.262577 6.872116 2.949971 11.479723 -8.464599 0.000000 0.000000 0.000000 7.508578 -31.362111 -19.628063 -0.000001 0.000002 -0.000001 19.420704 -5.622409 15.085771 14.574869 -0.922788 11.520561 0.000000 0.000000 0.000000 14.818049 -0.707194 9.933148 -9.782864 -2.910247 5.424810 0.000000 0.000000 0.000000 14.818049 -0.707194 9.933148 1.387881 -22.429749 -11.728955 -27.596959 -26.306120 -58.066423 -0.000005 -6.944706 -0.000005 0.000000 0.000000 0.000000 14.818049 -0.707194 9.933148 3.408924 8.266849 10.523090 6.225387 47.281028 22.180174 -0.000003 25.830527 0.000000 0.000000 0.000000 0.000000 
4.696743 78.459305 -5.276451 0.000000 0.000000 0.000000 7.491713 -31.140390 -19.597141 -36.268755 -9.618052 26.841648 48.324565 5.552863 8.625088 -10.146604 27.824388 -11.773240 0.000000 0.000000 0.000000 7.491713 -31.140390 -19.597141 -25.340499 4.128100 26.389273 17.005100 -0.275564 6.835242 2.862648 11.301704 -8.476637 0.000000 0.000000 0.000000 7.491713 -31.140390 -19.597141 -0.000000 0.000001 0.000001 19.334797 -5.643631 15.177201 14.531210 -0.926982 11.559597 0.000000 0.000000 0.000000 14.773837 -0.709896 9.971896 -9.757385 -2.920771 5.415713 0.000000 0.000000 0.000000 14.773837 -0.709896 9.971896 1.387709 -22.433545 -11.727218 -27.275698 -26.456272 -58.194817 -0.000001 -6.951254 -0.000002 0.000000 0.000000 0.000000 14.773837 -0.709896 9.971896 3.499233 8.253642 10.153687 6.087416 46.989079 22.533139 -0.000004 26.186583 -0.000021 0.000000 0.000000 0.000000 
